<svg xmlns="http://www.w3.org/2000/svg" viewBox="0 0 570.05 534.74"><defs><style>.cls-1{fill:#fff;}</style></defs><g id="Capa_2" data-name="Capa 2"><g id="Capa_1-2" data-name="Capa 1"><circle class="cls-1" cx="284.3" cy="267.69" r="53.39"/><path class="cls-1" d="M464,490.77,388.46,62.53A53.35,53.35,0,0,1,431.85.82h0A53.35,53.35,0,0,1,493.73,44l75.51,428.24a53.35,53.35,0,0,1-43.39,61.71h0A53.33,53.33,0,0,1,464,490.77Z"/><path class="cls-1" d="M106.08,490.77,181.59,62.53A53.35,53.35,0,0,0,138.2.82h0A53.33,53.33,0,0,0,76.33,44L.81,472.21A53.35,53.35,0,0,0,44.2,533.92h0A53.35,53.35,0,0,0,106.08,490.77Z"/></g></g></svg>